# xmcd
#
# Track frame offsets: 
#        150
#        30138
#        57071
#        80865
#        103217
#        122099
#        134628
#        160269
#        178254
#        186581
#        205007
#        232011
#        239332
#        260281
#        276588
#        290474
#        309603
#        330513
#
# Disc length: 4716 seconds
#
# Revision: 0
# Processed by: cddbd v1.5.2PL0 Copyright (c) Steve Scherf et al.
# Submitted via: ExactAudioCopy v0.95b3
#
DISCID=12126a12
DTITLE=Lunacy - Case History Vol. 1 [MR 027]
DYEAR=2016
DGENRE=Thrash Metal
TTITLE0=F.O.M.A.
TTITLE1=The Blade
TTITLE2=The Lunacy
TTITLE3=Nuclear Morning
TTITLE4=Voice of Terror
TTITLE5=P.M.R.C.
TTITLE6=Lunacy II
TTITLE7=What the Hell For
TTITLE8=Up in Smoke
TTITLE9=Icehouse
TTITLE10=Parasite
TTITLE11=P.M.R.C. (Live)
TTITLE12=The Sickness
TTITLE13=Hellbound
TTITLE14=Control
TTITLE15=3 Days
TTITLE16=Home
TTITLE17=Brontofroehn
EXTD=
EXTT0=
EXTT1=
EXTT2=
EXTT3=
EXTT4=
EXTT5=
EXTT6=
EXTT7=
EXTT8=
EXTT9=
EXTT10=
EXTT11=
EXTT12=
EXTT13=
EXTT14=
EXTT15=
EXTT16=
EXTT17=
PLAYORDER=
